{"title":"The Gabby Douglas Story 2014 DVDRip x264 AC3-MiLLENiUM","uid":9995508,"size":1025243221,"categoryP":"video","categoryS":"movies_dvdr","magnet":"?xt=urn:btih:3bc42c49d080a30c87beddc08da4dd82d4ccd405&amp;dn=The+Gabby+Douglas+Story+2014+DVDRip+x264+AC3-MiLLENiUM&amp;tr=udp%3A%2F%2Ftracker.openbittorrent.com%3A80&amp;tr=udp%3A%2F%2Fopen.demonii.com%3A1337&amp;tr=udp%3A%2F%2Ftracker.coppersurfer.tk%3A6969&amp;tr=udp%3A%2F%2Fexodus.desync.com%3A6969","seeders":1,"leechers":0,"uploader":"Xetron","files":3,"time":1397913711,"description":" &lt;a href=&quot;http://s23.postimg.org/hjz5viyt7/MV5_BMj_A0_ODM1_NTMw_NV5_BMl5_Ban_Bn_Xk_Ft_ZTgw_Mj_U5_ODUw_MTE.jpg&quot; rel=&quot;nofollow&quot; target=&quot;_NEW&quot;&gt;http://s23.postimg.org/hjz5viyt7/MV5_BMj_A0_ODM1_NTMw_NV5_BMl5_Ban_Bn_Xk_Ft_ZTgw_Mj_U5_ODUw_MTE.jpg&lt;/a&gt;\nThe Gabby Douglas Story 2014 DVDRip x264 AC3-MiLLENiUM General\nSource: COMPLETE.BiOPiC.WS.NTSC.DVDR-NoRBiT [THANKS]\nIMDb Information: http://www.imdb.com/title/tt3386954/\nSample Included: yes\n\nGeneral\nComplete name: The Gabby Douglas Story 2014 DVDRip x264 AC3-MiLLENiUM.mkv\nFormat: Matroska\nFormat version: Version 2\nFile size: 958 MiB\nDuration: 1h 26mn\nOverall bit rate mode: Variable\nOverall bit rate: 1 552 Kbps\nEncoded date: UTC 2014-04-17 11:31:55\nWriting application: mkvmerge v6.8.0 ('Theme for Great Cities') 32bit built on Mar 2 2014 21:27:07\nWriting library: libebml v1.3.0 + libmatroska v1.4.1\n\nVideo\nID: 1\nFormat: AVC\nFormat/Info: Advanced Video Codec\nFormat profile: &lt;a class=&quot;__cf_email__&quot; href=&quot;/cdn-cgi/l/email-protection&quot; data-cfemail=&quot;c189a8a6a9818df5eff0&quot;&gt;[email&amp;#160;protected]&lt;/a&gt;&lt;script cf-hash='f9e31' type=&quot;text/javascript&quot;&gt;\n/* &lt;![CDATA[ */!function(){try{var t=&quot;currentScript&quot;in document?document.currentScript:function(){for(var t=document.getElementsByTagName(&quot;script&quot;),e=t.length;e--;)if(t[e].getAttribute(&quot;cf-hash&quot;))return t[e]}();if(t&amp;&amp;t.previousSibling){var e,r,n,i,c=t.previousSibling,a=c.getAttribute(&quot;data-cfemail&quot;);if(a){for(e=&quot;&quot;,r=parseInt(a.substr(0,2),16),n=2;a.length-n;n+=2)i=parseInt(a.substr(n,2),16)^r,e+=String.fromCharCode(i);e=document.createTextNode(e),c.parentNode.replaceChild(e,c)}}}catch(u){}}();/* ]]&gt; */&lt;/script&gt;\nFormat settings, CABAC: Yes\nFormat settings, ReFrames: 3 frames\nCodec ID: V_MPEG4/ISO/AVC\nDuration: 1h 26mn\nBit rate mode: Variable\nBit rate: 1 073 Kbps\nMaximum bit rate: 40.0 Mbps\nWidth: 720 pixels\nHeight: 400 pixels\nDisplay aspect ratio: 16:9\nFrame rate mode: Constant\nFrame rate: 23.976 fps\nColor space: YUV\nChroma subsampling: 4:2:0\nBit depth: 8 bits\nScan type: Progressive\nBits/(Pixel*Frame): 0.155\nStream size: 662 MiB (69%)\nWriting library: x264 core 142 r2409 d6b4e63\n\nAudio\nID: 2\nFormat: AC-3\nFormat/Info: Audio Coding 3\nMode extension: CM (complete main)\nFormat settings, Endianness: Big\nCodec ID: A_AC3\nDuration: 1h 26mn\nBit rate mode: Constant\nBit rate: 448 Kbps\nChannel(s): 6 channels\nChannel positions: Front: L C R, Side: L R, LFE\nSampling rate: 48.0 KHz\nBit depth: 16 bits\nCompression mode: Lossy\nStream size: 276 MiB (29%)\nLanguage: English\nDefault: Yes\nForced: No Plot\nThe story of the international gymnastics phenomenon who overcame overwhelming odds to become the first African American ever to be named Individual All-Around Champion in artistic gymnastics at the Olympic Games \n\nScreens - &lt;a href=&quot;\nhttp://i.imgur.com/o1a7Cjt.jpg&quot; rel=&quot;nofollow&quot; target=&quot;_NEW&quot;&gt;\nhttp://i.imgur.com/o1a7Cjt.jpg&lt;/a&gt; &lt;a href=&quot;\nhttp://i.imgur.com/OC0xBhU.jpg&quot; rel=&quot;nofollow&quot; target=&quot;_NEW&quot;&gt;\nhttp://i.imgur.com/OC0xBhU.jpg&lt;/a&gt; &lt;a href=&quot;\nhttp://s12.postimg.org/5o9zk33wt/vlcsnap_2014_04_17_12h33m34s30.png&quot; rel=&quot;nofollow&quot; target=&quot;_NEW&quot;&gt;\nhttp://s12.postimg.org/5o9zk33wt/vlcsnap_2014_04_17_12h33m34s30.png&lt;/a&gt; &lt;a href=&quot;\nhttp://s12.postimg.org/hbyzhimq5/vlcsnap_2014_04_17_12h33m46s155.png&quot; rel=&quot;nofollow&quot; target=&quot;_NEW&quot;&gt;\nhttp://s12.postimg.org/hbyzhimq5/vlcsnap_2014_04_17_12h33m46s155.png&lt;/a&gt; &lt;a href=&quot;\nhttp://s12.postimg.org/956zpxwnh/vlcsnap_2014_04_17_12h33m50s207.png&quot; rel=&quot;nofollow&quot; target=&quot;_NEW&quot;&gt;\nhttp://s12.postimg.org/956zpxwnh/vlcsnap_2014_04_17_12h33m50s207.png&lt;/a&gt; &lt;a href=&quot;\nhttp://s12.postimg.org/c390graml/vlcsnap_2014_04_17_12h34m11s148.png&quot; rel=&quot;nofollow&quot; target=&quot;_NEW&quot;&gt;\nhttp://s12.postimg.org/c390graml/vlcsnap_2014_04_17_12h34m11s148.png&lt;/a&gt;\n","torrent":{"xt":"urn:btih:3bc42c49d080a30c87beddc08da4dd82d4ccd405","amp;dn":"The+Gabby+Douglas+Story+2014+DVDRip+x264+AC3-MiLLENiUM","amp;tr":["udp%3A%2F%2Ftracker.openbittorrent.com%3A80","udp%3A%2F%2Fopen.demonii.com%3A1337","udp%3A%2F%2Ftracker.coppersurfer.tk%3A6969","udp%3A%2F%2Fexodus.desync.com%3A6969"],"infoHash":"3bc42c49d080a30c87beddc08da4dd82d4ccd405","infoHashBuffer":{"type":"Buffer","data":[59,196,44,73,208,128,163,12,135,190,221,192,141,164,221,130,212,204,212,5]},"announce":[],"urlList":[]}}